<?xml version="1.0" encoding="utf-8"?>
<!-- Generator: Adobe Illustrator 20.1.0, SVG Export Plug-In . SVG Version: 6.00 Build 0)  -->
<svg version="1.1" id="Layer_1" xmlns="http://www.w3.org/2000/svg" xmlns:xlink="http://www.w3.org/1999/xlink" x="0px" y="0px"
	 viewBox="0 0 114.2 114.2" style="enable-background:new 0 0 114.2 114.2;" xml:space="preserve">
<style type="text/css">
	.st0{fill:#FFFFFF;}
</style>
<path class="st0" d="M57.1,0C25.6,0,0,25.6,0,57.1c0,31.5,25.6,57.1,57.1,57.1c31.5,0,57.1-25.6,57.1-57.1C114.2,25.6,88.6,0,57.1,0
	z M29.9,98.1l54.4,0c-7.8,5.2-17.1,8.2-27.2,8.2C47,106.3,37.7,103.3,29.9,98.1z M93.2,90.4l-72.3,0C12.8,81.7,7.9,69.9,7.9,57.1
	c0-0.5,0-1,0-1.5l10.5,11.8h1.2L32,53.5c2.9-3.3,6.2-7.4,6.2-7.4s0,5.3,0,9.5V79h12.4V16.1h-1.1L19.3,49.8l-8.5-9.3
	c6.8-19,25-32.6,46.3-32.6c21.4,0,39.6,13.7,46.4,32.8l-8.2,9.1L64.6,16.1h-1V79h12.3V55.6c0-4.2,0-9.6,0-9.6s3.3,4.2,6.3,7.5
	l12.4,13.8h1.2l10.6-11.9c0,0.5,0,1.1,0,1.6C106.3,69.9,101.3,81.7,93.2,90.4z"/>
</svg>
